<svg xmlns="http://www.w3.org/2000/svg" width="512" height="512" viewBox="0 0 512 512" version="1.1"><path d="M 129.385 214.765 C 128.437 215.390, 103.997 291.004, 103.999 293.305 C 104 293.747, 106.074 293.972, 108.608 293.805 L 113.216 293.500 123.090 262 C 128.521 244.675, 133.914 227.948, 135.075 224.828 L 137.186 219.156 140.843 219.703 C 147.690 220.728, 147.500 219.768, 147.500 253.286 C 147.500 286.508, 147.265 288, 142.024 288 C 138.728 288, 137.054 289.786, 139.122 291.096 C 139.880 291.577, 148.375 291.969, 158 291.969 C 167.625 291.969, 176.120 291.577, 176.878 291.096 C 179.083 289.700, 177.183 288, 173.416 288 C 170.616 288, 169.763 287.507, 168.975 285.435 C 167.734 282.171, 167.692 259.308, 168.925 258.546 C 169.857 257.970, 180.297 271.314, 189.427 284.750 L 194.353 292 206.617 292 C 219.033 292, 222.710 290.930, 218.433 288.562 C 217.379 287.978, 215.102 286.060, 213.373 284.301 C 209.486 280.345, 194 258.626, 194 257.132 C 194 256.532, 195.688 255.179, 197.750 254.127 C 199.813 253.074, 202.233 251.377, 203.129 250.356 C 210.764 241.658, 209.155 226.279, 200.006 220.504 C 194.662 217.130, 187.753 216.185, 160 215.032 C 130.973 213.825, 130.814 213.824, 129.385 214.765 M 254.383 216.402 C 244.966 220.787, 241.042 228.965, 242.753 240.642 C 243.306 244.414, 243.557 247.844, 243.311 248.264 C 243.065 248.685, 241.031 249.964, 238.790 251.107 C 233.322 253.897, 225.032 261.745, 223.357 265.718 C 220.758 271.881, 222.196 280.703, 226.664 286.013 C 234.555 295.391, 252.333 296.464, 266.845 288.438 L 271.190 286.035 275.345 288.859 C 283.620 294.483, 289.968 295.331, 296.985 291.750 C 301.621 289.384, 308 281.358, 308 277.891 C 308 275.378, 304.829 275.427, 302.523 277.974 C 299.438 281.383, 297.273 281.384, 291.962 277.975 C 289.233 276.224, 287 274.101, 287 273.257 C 287 272.413, 289.479 267.996, 292.510 263.442 C 297.627 255.751, 301.048 252.075, 305.541 249.438 C 306.585 248.826, 307.040 247.873, 306.616 247.188 C 305.678 245.671, 283.413 245.523, 282.483 247.028 C 282.134 247.593, 283.281 249.394, 285.032 251.030 C 287.654 253.479, 288.096 254.489, 287.539 256.752 C 286.508 260.945, 281.996 268.164, 280.674 267.739 C 279.323 267.305, 265 249.295, 265 248.030 C 265 247.569, 267.577 245.737, 270.726 243.959 C 273.875 242.182, 277.700 239.392, 279.226 237.758 C 281.638 235.176, 282 233.982, 282 228.617 C 282 221.244, 280.439 218.557, 274.617 215.914 C 268.758 213.253, 260.730 213.447, 254.383 216.402 M 314.557 215.908 C 313.440 217.716, 315.794 219.850, 319.285 220.192 C 322.057 220.464, 322.520 220.965, 323.263 224.500 C 323.726 226.700, 323.969 241.144, 323.802 256.598 C 323.474 287.138, 323.313 288, 317.937 288 C 314.714 288, 313.077 289.801, 315.122 291.096 C 315.880 291.577, 324.375 291.969, 334 291.969 C 343.625 291.969, 352.120 291.577, 352.878 291.096 C 354.941 289.790, 353.276 288, 349.998 288 C 345.007 288, 344 285.203, 344 271.337 C 344 264.616, 344.429 258.853, 344.953 258.529 C 346.048 257.852, 350.567 263.386, 362.633 280.185 L 371.162 292.059 383.584 291.779 C 390.771 291.618, 396.060 291.085, 396.134 290.515 C 396.203 289.973, 394.964 288.819, 393.380 287.949 C 390.671 286.462, 370.180 259.658, 370.103 257.500 C 370.083 256.950, 372.375 255.150, 375.196 253.500 C 381.965 249.541, 384 245.627, 384 236.569 C 384 230.698, 383.592 229.019, 381.397 225.851 C 375.514 217.362, 369.963 215.964, 339.393 215.273 C 321.444 214.867, 315.100 215.029, 314.557 215.908 M 259.034 222.464 C 257.076 224.548, 256.812 225.613, 257.326 229.361 C 257.660 231.799, 258.678 235.655, 259.589 237.931 L 261.245 242.070 263.872 240.416 C 267.767 237.966, 269 236, 269 232.243 C 269 228.488, 267.763 225.612, 264.701 222.250 C 262.139 219.437, 261.868 219.447, 259.034 222.464 M 168 236.371 L 168 252 172.750 251.998 C 182.987 251.995, 188.406 246.117, 187.740 235.737 C 187.148 226.505, 183.372 222.778, 173.250 221.438 L 168 220.742 168 236.371 M 344 236.371 L 344 252 348.532 252 C 354.323 252, 359.060 250.009, 361.926 246.371 C 363.898 243.869, 364.143 242.580, 363.829 236.338 C 363.329 226.358, 359.876 222.848, 349.156 221.426 L 344 220.742 344 236.371 M 80 235.377 C 37.773 252.865, 42 250.745, 42 254.437 C 42 257.559, 42.305 257.808, 49.750 260.768 C 54.013 262.463, 67.542 267.942, 79.815 272.944 C 92.088 277.946, 102.550 281.778, 103.065 281.460 C 103.579 281.142, 104 278.959, 104 276.610 L 104 272.338 94.250 268.510 C 75.906 261.308, 61.046 254.734, 61.489 254.017 C 61.733 253.623, 71.398 249.314, 82.966 244.443 L 104 235.586 104 230.793 C 104 228.157, 103.662 226.013, 103.250 226.029 C 102.838 226.046, 92.375 230.252, 80 235.377 M 396 230.896 L 396 235.792 407.750 240.444 C 427.127 248.115, 439 253.276, 439 254.029 C 439 254.420, 429.438 258.752, 417.750 263.656 L 396.500 272.574 396.182 276.419 C 396.007 278.533, 396.232 280.621, 396.682 281.057 C 397.132 281.493, 399.975 280.822, 403 279.565 C 406.025 278.308, 418.175 273.296, 430 268.428 C 455.452 257.948, 457.408 256.956, 457.798 254.332 C 458.279 251.095, 458.247 251.078, 430 239.529 C 405.394 229.469, 396.779 226, 396.401 226 C 396.181 226, 396 228.203, 396 230.896 M 243.581 256.507 C 238.648 261.830, 238.938 268.012, 244.460 275.243 C 248.884 281.038, 253.836 283.431, 259.728 282.624 C 262.169 282.289, 264.583 281.758, 265.094 281.442 C 265.604 281.127, 263.390 277.636, 260.174 273.684 C 256.958 269.733, 252.501 263.613, 250.268 260.085 L 246.210 253.671 243.581 256.507" stroke="none" fill="#070707" fill-rule="evenodd"/><path d="M 0 256.002 L 0 512.004 256.250 511.752 L 512.500 511.500 512.752 255.750 L 513.004 0 256.502 0 L 0 0 0 256.002 M 0.492 256.500 C 0.492 397.300, 0.608 454.751, 0.750 384.170 C 0.892 313.588, 0.892 198.388, 0.750 128.170 C 0.608 57.951, 0.492 115.700, 0.492 256.500 M 129.385 214.765 C 128.437 215.390, 103.997 291.004, 103.999 293.305 C 104 293.747, 106.074 293.972, 108.608 293.805 L 113.216 293.500 123.090 262 C 128.521 244.675, 133.914 227.948, 135.075 224.828 L 137.186 219.156 140.843 219.703 C 147.690 220.728, 147.500 219.768, 147.500 253.286 C 147.500 286.508, 147.265 288, 142.024 288 C 138.728 288, 137.054 289.786, 139.122 291.096 C 139.880 291.577, 148.375 291.969, 158 291.969 C 167.625 291.969, 176.120 291.577, 176.878 291.096 C 179.083 289.700, 177.183 288, 173.416 288 C 170.616 288, 169.763 287.507, 168.975 285.435 C 167.734 282.171, 167.692 259.308, 168.925 258.546 C 169.857 257.970, 180.297 271.314, 189.427 284.750 L 194.353 292 206.617 292 C 219.033 292, 222.710 290.930, 218.433 288.562 C 217.379 287.978, 215.102 286.060, 213.373 284.301 C 209.486 280.345, 194 258.626, 194 257.132 C 194 256.532, 195.688 255.179, 197.750 254.127 C 199.813 253.074, 202.233 251.377, 203.129 250.356 C 210.764 241.658, 209.155 226.279, 200.006 220.504 C 194.662 217.130, 187.753 216.185, 160 215.032 C 130.973 213.825, 130.814 213.824, 129.385 214.765 M 254.383 216.402 C 244.966 220.787, 241.042 228.965, 242.753 240.642 C 243.306 244.414, 243.557 247.844, 243.311 248.264 C 243.065 248.685, 241.031 249.964, 238.790 251.107 C 233.322 253.897, 225.032 261.745, 223.357 265.718 C 220.758 271.881, 222.196 280.703, 226.664 286.013 C 234.555 295.391, 252.333 296.464, 266.845 288.438 L 271.190 286.035 275.345 288.859 C 283.620 294.483, 289.968 295.331, 296.985 291.750 C 301.621 289.384, 308 281.358, 308 277.891 C 308 275.378, 304.829 275.427, 302.523 277.974 C 299.438 281.383, 297.273 281.384, 291.962 277.975 C 289.233 276.224, 287 274.101, 287 273.257 C 287 272.413, 289.479 267.996, 292.510 263.442 C 297.627 255.751, 301.048 252.075, 305.541 249.438 C 306.585 248.826, 307.040 247.873, 306.616 247.188 C 305.678 245.671, 283.413 245.523, 282.483 247.028 C 282.134 247.593, 283.281 249.394, 285.032 251.030 C 287.654 253.479, 288.096 254.489, 287.539 256.752 C 286.508 260.945, 281.996 268.164, 280.674 267.739 C 279.323 267.305, 265 249.295, 265 248.030 C 265 247.569, 267.577 245.737, 270.726 243.959 C 273.875 242.182, 277.700 239.392, 279.226 237.758 C 281.638 235.176, 282 233.982, 282 228.617 C 282 221.244, 280.439 218.557, 274.617 215.914 C 268.758 213.253, 260.730 213.447, 254.383 216.402 M 314.557 215.908 C 313.440 217.716, 315.794 219.850, 319.285 220.192 C 322.057 220.464, 322.520 220.965, 323.263 224.500 C 323.726 226.700, 323.969 241.144, 323.802 256.598 C 323.474 287.138, 323.313 288, 317.937 288 C 314.714 288, 313.077 289.801, 315.122 291.096 C 315.880 291.577, 324.375 291.969, 334 291.969 C 343.625 291.969, 352.120 291.577, 352.878 291.096 C 354.941 289.790, 353.276 288, 349.998 288 C 345.007 288, 344 285.203, 344 271.337 C 344 264.616, 344.429 258.853, 344.953 258.529 C 346.048 257.852, 350.567 263.386, 362.633 280.185 L 371.162 292.059 383.584 291.779 C 390.771 291.618, 396.060 291.085, 396.134 290.515 C 396.203 289.973, 394.964 288.819, 393.380 287.949 C 390.671 286.462, 370.180 259.658, 370.103 257.500 C 370.083 256.950, 372.375 255.150, 375.196 253.500 C 381.965 249.541, 384 245.627, 384 236.569 C 384 230.698, 383.592 229.019, 381.397 225.851 C 375.514 217.362, 369.963 215.964, 339.393 215.273 C 321.444 214.867, 315.100 215.029, 314.557 215.908 M 259.034 222.464 C 257.076 224.548, 256.812 225.613, 257.326 229.361 C 257.660 231.799, 258.678 235.655, 259.589 237.931 L 261.245 242.070 263.872 240.416 C 267.767 237.966, 269 236, 269 232.243 C 269 228.488, 267.763 225.612, 264.701 222.250 C 262.139 219.437, 261.868 219.447, 259.034 222.464 M 168 236.371 L 168 252 172.750 251.998 C 182.987 251.995, 188.406 246.117, 187.740 235.737 C 187.148 226.505, 183.372 222.778, 173.250 221.438 L 168 220.742 168 236.371 M 344 236.371 L 344 252 348.532 252 C 354.323 252, 359.060 250.009, 361.926 246.371 C 363.898 243.869, 364.143 242.580, 363.829 236.338 C 363.329 226.358, 359.876 222.848, 349.156 221.426 L 344 220.742 344 236.371 M 80 235.377 C 37.773 252.865, 42 250.745, 42 254.437 C 42 257.559, 42.305 257.808, 49.750 260.768 C 54.013 262.463, 67.542 267.942, 79.815 272.944 C 92.088 277.946, 102.550 281.778, 103.065 281.460 C 103.579 281.142, 104 278.959, 104 276.610 L 104 272.338 94.250 268.510 C 75.906 261.308, 61.046 254.734, 61.489 254.017 C 61.733 253.623, 71.398 249.314, 82.966 244.443 L 104 235.586 104 230.793 C 104 228.157, 103.662 226.013, 103.250 226.029 C 102.838 226.046, 92.375 230.252, 80 235.377 M 396 230.896 L 396 235.792 407.750 240.444 C 427.127 248.115, 439 253.276, 439 254.029 C 439 254.420, 429.438 258.752, 417.750 263.656 L 396.500 272.574 396.182 276.419 C 396.007 278.533, 396.232 280.621, 396.682 281.057 C 397.132 281.493, 399.975 280.822, 403 279.565 C 406.025 278.308, 418.175 273.296, 430 268.428 C 455.452 257.948, 457.408 256.956, 457.798 254.332 C 458.279 251.095, 458.247 251.078, 430 239.529 C 405.394 229.469, 396.779 226, 396.401 226 C 396.181 226, 396 228.203, 396 230.896 M 243.581 256.507 C 238.648 261.830, 238.938 268.012, 244.460 275.243 C 248.884 281.038, 253.836 283.431, 259.728 282.624 C 262.169 282.289, 264.583 281.758, 265.094 281.442 C 265.604 281.127, 263.390 277.636, 260.174 273.684 C 256.958 269.733, 252.501 263.613, 250.268 260.085 L 246.210 253.671 243.581 256.507" stroke="none" fill="#fbfbfb" fill-rule="evenodd"/></svg>