<?xml version="1.0" encoding="UTF-8" standalone="no"?>
<svg
   width="155.11002"
   height="172.54118"
   viewBox="0 0 155.11002 172.54118"
   fill="none"
   version="1.1"
   id="svg4"
   xmlns="http://www.w3.org/2000/svg"
   xmlns:svg="http://www.w3.org/2000/svg">
  <defs
     id="defs4" />
  <path
     d="m 6.0000005,80.873973 67.8823005,-67.8822 c 9.3727,-9.3725998 24.5687,-9.3725998 33.940699,0 v 0 c 9.373,9.3725 9.373,24.5685 0,33.9411 l -51.264899,51.2653"
     stroke="#000000"
     stroke-width="12"
     stroke-linecap="round"
     id="path1" />
  <path
     d="M 57.265301,97.491173 107.823,46.932873 c 9.373,-9.3726 24.569,-9.3726 33.942,0 l 0.353,0.3535 c 9.373,9.3726 9.373,24.5686 0,33.9411 L 80.724801,142.62117 c -3.1242,3.124 -3.1242,8.189 0,11.313 l 12.6062,12.607"
     stroke="#000000"
     stroke-width="12"
     stroke-linecap="round"
     id="path2" />
  <path
     d="m 90.853001,29.962273 -50.2048,50.2046 c -9.3725,9.3723 -9.3725,24.568297 0,33.941297 v 0 c 9.3726,9.372 24.5686,9.372 33.9412,0 L 124.794,63.903373"
     stroke="#000000"
     stroke-width="12"
     stroke-linecap="round"
     id="path3" />
</svg>
